# xmcd CD database file
#
# Track frame offsets:
#	150
#	18555
#	30500
#	47425
#	64490
#	77785
#	99850
#	123307
#	143552
#	147332
#
# Disc length: 2319 seconds
#
# Revision: 0
# Processed by: cddbd v1.5PL3 Copyright (c) Steve Scherf et al.
# Submitted via: CDex 1.51
#
DISCID=7f090d0a
DTITLE=Be Modern - Be Modern
DYEAR=1989
DGENRE=JPop
TTITLE0=眠れない物語
TTITLE1=Imitation Love
TTITLE2=BREAKS
TTITLE3=悲しく叫んで
TTITLE4=The light of my life
TTITLE5=WEEKEND ON A ROLL
TTITLE6=闇のむこう側へ
TTITLE7=Beginner
TTITLE8=The Barley Field 1986
TTITLE9=Repeat
EXTD=YEAR: 1989
EXTT0=
EXTT1=
EXTT2=
EXTT3=
EXTT4=
EXTT5=
EXTT6=
EXTT7=
EXTT8=
EXTT9=
PLAYORDER=
